<svg width="22" height="22" viewBox="0 0 22 22" fill="none" xmlns="http://www.w3.org/2000/svg">
<path d="M17.4167 2.75H4.58333C3.57081 2.75 2.75 3.57081 2.75 4.58333V17.4167C2.75 18.4292 3.57081 19.25 4.58333 19.25H17.4167C18.4292 19.25 19.25 18.4292 19.25 17.4167V4.58333C19.25 3.57081 18.4292 2.75 17.4167 2.75Z" stroke="white" stroke-width="1.5" stroke-linecap="round" stroke-linejoin="round"/>
<path d="M7.79163 9.16663C8.55102 9.16663 9.16663 8.55102 9.16663 7.79163C9.16663 7.03223 8.55102 6.41663 7.79163 6.41663C7.03223 6.41663 6.41663 7.03223 6.41663 7.79163C6.41663 8.55102 7.03223 9.16663 7.79163 9.16663Z" stroke="white" stroke-width="1.5" stroke-linecap="round" stroke-linejoin="round"/>
<path d="M19.25 13.75L14.6667 9.16663L4.58337 19.25" stroke="white" stroke-width="1.5" stroke-linecap="round" stroke-linejoin="round"/>
</svg>
